# Blender v2.80 (sub 75) OBJ File: ''
# www.blender.org
mtllib gun.mtl
o Cylinder
v 0.029264 -0.098393 -0.261207
v 0.057402 -0.092845 0.289503
v 0.029263 -0.098394 0.289503
v 0.057402 -0.092845 -0.261207
v 0.083335 -0.083835 0.289503
v 0.083336 -0.083835 -0.261207
v 0.106066 -0.071710 0.289503
v 0.106066 -0.071710 -0.261207
v 0.124720 -0.056935 0.289503
v 0.124720 -0.056935 -0.261207
v 0.138582 -0.040079 0.289503
v 0.138582 -0.040079 -0.261207
v 0.147118 -0.021788 0.289503
v 0.147118 -0.021788 -0.261207
v 0.150000 -0.002767 0.289503
v 0.147118 0.016254 -0.261207
v 0.147118 0.016254 0.289503
v 0.138582 0.034545 0.289503
v 0.138582 0.034545 -0.261207
v 0.124721 0.051401 0.289503
v 0.124720 0.051401 -0.261207
v 0.106066 0.066176 0.289503
v 0.106066 0.066176 -0.261207
v 0.083336 0.078301 0.289503
v 0.083336 0.078301 -0.261207
v 0.057402 0.087311 0.289503
v 0.057402 0.087311 -0.261207
v 0.029264 0.092859 0.289503
v 0.029264 0.092860 -0.261207
v 0.000000 0.094733 0.289503
v -0.000000 0.094733 -0.261207
v -0.029264 0.092859 0.289503
v -0.029264 0.092860 -0.261207
v -0.057403 0.087311 0.289503
v -0.057403 0.087311 -0.261207
v -0.083336 0.078301 0.289503
v -0.083336 0.078301 -0.261207
v -0.106066 0.066176 0.289503
v -0.106066 0.066176 -0.261207
v -0.124721 0.051401 0.289503
v -0.124720 0.051401 -0.261207
v -0.138582 0.034545 0.289503
v -0.138582 0.034545 -0.261207
v -0.147118 0.016254 0.289503
v -0.147118 0.016254 -0.261207
v -0.150000 -0.002767 0.289503
v -0.150000 -0.002767 -0.261207
v -0.147118 -0.021788 0.289503
v -0.147118 -0.021788 -0.261207
v -0.138582 -0.040079 0.289503
v -0.138582 -0.040079 -0.261207
v -0.124720 -0.056935 0.289503
v -0.124720 -0.056935 -0.261207
v -0.106066 -0.071710 0.289503
v -0.106066 -0.071710 -0.261207
v -0.083335 -0.083835 0.289503
v -0.083335 -0.083835 -0.261207
v -0.057402 -0.092845 0.289503
v -0.057402 -0.092845 -0.261207
v -0.029263 -0.098394 0.289503
v -0.029263 -0.098393 -0.261207
v -0.000000 -0.100267 0.289503
v -0.030000 0.117233 -0.436664
v 0.030000 0.117233 -0.436664
v 0.000000 -0.100267 -0.261207
v -0.045000 -0.069233 0.504564
v -0.045000 -0.009308 0.616854
v -0.045000 0.016874 0.530747
v -0.045000 -0.095416 0.750371
v 0.045000 -0.009308 0.616854
v 0.045000 -0.069233 0.504564
v 0.045000 0.016874 0.530747
v 0.045000 -0.095416 0.750371
v -0.180000 0.027233 -0.586664
v -0.180000 -0.032767 -0.436664
v -0.180000 0.027233 -0.436664
v 0.150000 -0.002767 -0.261207
v 0.120000 0.027233 -0.436664
v -0.120000 -0.032767 -0.436664
v -0.120000 0.027233 -0.586664
v -0.120000 0.027233 -0.436664
v -0.120000 -0.032767 -0.654216
v -0.030000 0.057233 -0.654216
v -0.030000 0.117233 -0.742637
v 0.030000 0.057233 -0.654216
v 0.030000 0.117233 -0.742637
v -0.030000 0.057233 -0.436664
v 0.030000 0.057233 -0.436664
v 0.120000 0.027233 -0.586664
v 0.120000 -0.032767 -0.436664
v 0.180000 -0.032767 -0.436664
v 0.180000 0.027233 -0.586664
v 0.180000 0.027233 -0.436664
v 0.180000 -0.032767 -0.654216
v -0.180000 -0.032767 -0.654216
v 0.120000 -0.032767 -0.654216
vt 0.275194 0.235651
vt 0.336753 0.674980
vt 0.315062 0.676174
vt 0.296885 0.234456
vt 0.358508 0.673979
vt 0.318639 0.233456
vt 0.379489 0.673211
vt 0.339620 0.232688
vt 0.398892 0.672706
vt 0.002944 0.232665
vt 0.060581 0.672635
vt 0.042438 0.673825
vt 0.021086 0.231476
vt 0.080743 0.671436
vt 0.041249 0.230277
vt 0.102152 0.670275
vt 0.084488 0.228036
vt 0.123983 0.669195
vt 0.145397 0.668238
vt 0.105903 0.227079
vt 0.165573 0.667441
vt 0.126078 0.226282
vt 0.183735 0.666835
vt 0.144240 0.225676
vt 0.199183 0.666443
vt 0.747806 0.715444
vt 0.713776 0.284867
vt 0.732128 0.282694
vt 0.729454 0.717617
vt 0.693455 0.286495
vt 0.709133 0.719245
vt 0.671946 0.287515
vt 0.687625 0.720265
vt 0.650077 0.287888
vt 0.665755 0.720638
vt 0.628686 0.287600
vt 0.644365 0.720350
vt 0.608598 0.286661
vt 0.624276 0.719412
vt 0.590582 0.285109
vt 0.413468 0.233417
vt 0.421105 0.671155
vt 0.404514 0.672291
vt 0.430059 0.232281
vt 0.440159 0.670371
vt 0.449113 0.231497
vt 0.460944 0.669970
vt 0.469898 0.231096
vt 0.482662 0.669967
vt 0.491615 0.231093
vt 0.504476 0.670362
vt 0.513430 0.231488
vt 0.525550 0.671140
vt 0.534504 0.232266
vt 0.545073 0.672270
vt 0.554027 0.233396
vt 0.562295 0.673711
vt 0.571249 0.234837
vt 0.576555 0.675405
vt 0.205035 0.241383
vt 0.258502 0.680440
vt 0.244904 0.681906
vt 0.218633 0.239916
vt 0.275170 0.678958
vt 0.235301 0.238434
vt 0.294268 0.677518
vt 0.670999 0.819830
vt 0.715469 0.818401
vt 0.254399 0.236994
vt 0.558301 0.785408
vt 0.488472 0.846428
vt 0.459476 0.798893
vt 0.611607 0.016706
vt 0.689229 0.101697
vt 0.622524 0.103839
vt 0.117640 0.842171
vt 0.043982 0.783744
vt 0.143145 0.793117
vt 0.626736 0.154965
vt 0.287815 0.923125
vt 0.348754 0.784090
vt 0.349160 0.918845
vt 0.693441 0.152823
vt 0.747806 0.280059
vt 0.287409 0.788370
vt 0.460423 0.050067
vt 0.527401 0.133021
vt 0.458744 0.132403
vt 0.062657 0.229115
vt 0.090288 0.130962
vt 0.876651 0.122108
vt 0.945012 0.039001
vt 0.945012 0.121949
vt 0.825702 0.351815
vt 0.866062 0.376275
vt 0.821614 0.378051
vt 0.825702 0.459210
vt 0.870149 0.457435
vt 0.963718 0.270692
vt 0.922657 0.391633
vt 0.922657 0.271497
vt 0.819856 0.397817
vt 0.751195 0.517403
vt 0.751195 0.349433
vt 0.855671 0.558413
vt 0.819551 0.344214
vt 0.751190 0.224070
vt 0.819551 0.175015
vt 0.865890 0.344751
vt 0.821246 0.274524
vt 0.865890 0.274524
vt 0.676999 0.985437
vt 0.967742 0.563353
vt 0.926680 0.684294
vt 0.926680 0.564158
vt 0.990560 0.522504
vt 0.921898 0.440315
vt 0.990560 0.440159
vt 0.017691 0.133647
vt 0.078478 0.047347
vt 0.085887 0.130112
vt 0.875693 0.351815
vt 0.916052 0.376275
vt 0.871605 0.378051
vt 0.875693 0.459210
vt 0.920140 0.457435
vt 0.357995 0.136361
vt 0.388044 0.013642
vt 0.398892 0.133507
vt 0.459759 0.136546
vt 0.595620 0.806432
vt 0.606260 0.717859
vt 0.822054 0.253170
vt 0.920563 0.173946
vt 0.920563 0.272000
vt 0.905662 0.558413
vt 0.159689 0.225283
vt 0.199183 0.126934
vt 0.964854 0.284662
vt 0.964854 0.205773
vt 0.999481 0.253023
vt 0.981184 0.112188
vt 0.946557 0.080548
vt 0.981184 0.033298
vt 0.946557 0.001658
vt 0.999481 0.174133
vt 0.936745 0.175714
vt 0.528416 0.137164
vt 0.964547 0.372331
vt 0.978713 0.287750
vt 0.978713 0.383062
vt 0.924533 0.656725
vt 0.822418 0.656725
vt 0.917150 0.562945
vt 0.873798 0.006615
vt 0.873798 0.163728
vt 0.853299 0.003293
vt 0.831781 0.002512
vt 0.810073 0.004302
vt 0.829949 0.169963
vt 0.789009 0.008594
vt 0.359023 0.232183
vt 0.751071 0.615010
vt 0.811475 0.522271
vt 0.811475 0.678826
vt 0.751992 0.023934
vt 0.769397 0.015223
vt 0.585509 0.236531
vt 0.585509 0.920603
vt 0.678312 0.014563
vt 0.026366 0.920914
vt 0.529837 0.013605
vt 0.876651 0.001805
vt 0.870149 0.350039
vt 0.963718 0.390828
vt 0.819856 0.517246
vt 0.751190 0.344373
vt 0.821246 0.344751
vt 0.721469 0.984008
vt 0.967742 0.683489
vt 0.921898 0.559745
vt 0.006945 0.013610
vt 0.920140 0.350039
vt 0.347147 0.016496
vn 0.1934 -0.9811 -0.0000
vn 0.3282 -0.9446 -0.0000
vn 0.4707 -0.8823 -0.0000
vn 0.6209 -0.7839 -0.0000
vn 0.7724 -0.6352 -0.0000
vn 0.9062 -0.4229 -0.0000
vn 0.9887 -0.1498 0.0000
vn 0.9887 0.1498 0.0000
vn 0.9062 0.4229 -0.0000
vn 0.7724 0.6352 -0.0000
vn 0.6209 0.7839 0.0000
vn 0.4707 0.8823 0.0000
vn 0.3282 0.9446 0.0000
vn 0.1935 0.9811 0.0000
vn 0.1934 0.9811 0.0000
vn 0.0639 0.9980 0.0000
vn -0.0639 0.9980 0.0000
vn -0.1935 0.9811 0.0000
vn -0.1934 0.9811 0.0000
vn -0.3282 0.9446 0.0000
vn -0.4707 0.8823 0.0000
vn -0.6209 0.7839 0.0000
vn -0.7724 0.6352 0.0000
vn -0.9062 0.4229 0.0000
vn -0.9887 0.1498 0.0000
vn -0.9887 -0.1498 -0.0000
vn -0.9062 -0.4229 -0.0000
vn -0.7724 -0.6352 -0.0000
vn -0.6209 -0.7839 -0.0000
vn -0.4707 -0.8823 -0.0000
vn -0.3282 -0.9446 -0.0000
vn -0.1934 -0.9811 -0.0000
vn -0.1935 -0.9811 -0.0000
vn -0.0639 -0.9980 -0.0000
vn 0.0000 0.9919 0.1272
vn 0.0639 -0.9980 -0.0000
vn -1.0000 0.0000 -0.0000
vn -0.0000 0.8404 0.5420
vn 1.0000 -0.0000 0.0000
vn 0.0000 0.9567 0.2909
vn 0.0000 -0.9944 -0.1059
vn 0.0610 0.9532 0.2962
vn 0.1855 0.9407 0.2842
vn 0.3150 0.9066 0.2809
vn 0.4509 0.8452 0.2869
vn 0.5918 0.7472 0.3025
vn -0.0000 0.9517 0.3071
vn -0.0610 0.9532 0.2962
vn -0.1855 0.9407 0.2842
vn -0.3150 0.9066 0.2809
vn -0.4509 0.8452 0.2869
vn -0.5918 0.7472 0.3025
vn 0.0000 -0.9897 0.1428
vn -0.9062 -0.1323 0.4017
vn -0.9062 -0.1259 0.4036
vn -0.9063 -0.1230 0.4045
vn 0.9062 -0.1259 0.4036
vn 0.9062 -0.1323 0.4017
vn 0.9063 -0.1230 0.4045
vn -0.9122 0.1382 0.3858
vn -0.8464 0.3950 0.3573
vn -0.7299 0.6002 0.3271
vn 0.9122 0.1382 0.3858
vn 0.8464 0.3950 0.3573
vn 0.7299 0.6002 0.3271
vn 0.9062 -0.1373 0.4000
vn 0.8587 -0.4008 0.3193
vn 0.7493 -0.6162 0.2425
vn 0.6105 -0.7708 0.1822
vn 0.4659 -0.8733 0.1423
vn 0.3258 -0.9376 0.1217
vn 0.1921 -0.9743 0.1180
vn 0.0634 -0.9895 0.1295
vn -0.9062 -0.1373 0.4000
vn -0.8587 -0.4008 0.3193
vn -0.7493 -0.6162 0.2425
vn -0.6105 -0.7708 0.1822
vn -0.4659 -0.8733 0.1423
vn -0.3257 -0.9376 0.1217
vn -0.1921 -0.9742 0.1180
vn -0.0633 -0.9895 0.1295
vn 0.9787 0.1483 -0.1420
vn 0.0000 0.7477 -0.6641
vn 0.0000 1.0000 -0.0000
vn -0.0000 -1.0000 0.0000
vn 0.0000 0.9857 0.1685
vn 0.0000 -0.8275 -0.5615
vn -0.9857 0.0000 0.1685
vn -0.9787 0.1483 -0.1420
vn -0.9004 0.4202 -0.1129
vn -0.7679 0.6315 -0.1076
vn -0.6161 0.7779 -0.1237
vn -0.4649 0.8714 -0.1565
vn -0.0633 0.9885 0.1376
vn -0.1917 0.9720 0.1358
vn -0.3262 0.9390 0.1092
vn -0.7059 0.7059 -0.0580
vn 0.0633 0.9885 0.1376
vn 0.1917 0.9720 0.1358
vn 0.9004 0.4202 -0.1129
vn 0.7679 0.6315 -0.1076
vn 0.6161 0.7779 -0.1237
vn 0.3262 0.9390 0.1092
vn 0.4649 0.8714 -0.1565
vn 0.7059 0.7059 -0.0580
vn 0.0000 0.0000 -1.0000
vn -0.9705 -0.1471 0.1911
vn -0.8892 -0.4150 0.1926
vn -0.7632 -0.6276 0.1540
vn -0.0000 -0.9906 -0.1365
vn -0.6161 -0.7779 -0.1237
vn -0.4649 -0.8714 -0.1565
vn 0.9857 0.0000 0.1685
vn 0.6667 -0.6667 -0.3333
vn -0.2489 -0.7165 -0.6517
vn -0.1460 -0.7404 -0.6561
vn -0.0000 -0.7442 -0.6680
vn -0.0478 -0.7474 -0.6627
vn 0.0478 -0.7474 -0.6627
vn 0.9705 -0.1471 0.1911
vn 0.8892 -0.4150 0.1926
vn 0.7632 -0.6276 0.1540
vn 0.6161 -0.7779 -0.1237
vn 0.4649 -0.8714 -0.1565
vn -0.6667 -0.6667 -0.3333
vn 0.2489 -0.7165 -0.6517
vn 0.1460 -0.7404 -0.6561
usemtl Material.001
s 1
f 1/1/1 2/2/1 3/3/1
f 4/4/2 5/5/2 2/2/2
f 6/6/3 7/7/3 5/5/3
f 8/8/4 9/9/4 7/7/4
f 10/10/5 11/11/5 9/12/5
f 12/13/6 13/14/6 11/11/6
f 14/15/7 15/16/7 13/14/7
f 15/16/8 16/17/8 17/18/8
f 16/17/9 18/19/9 17/18/9
f 19/20/10 20/21/10 18/19/10
f 21/22/11 22/23/11 20/21/11
f 23/24/12 24/25/12 22/23/12
f 25/26/13 26/27/13 24/28/13
f 27/29/14 28/30/15 26/27/15
f 29/31/16 30/32/16 28/30/16
f 31/33/17 32/34/17 30/32/17
f 33/35/18 34/36/19 32/34/19
f 35/37/20 36/38/20 34/36/20
f 37/39/21 38/40/21 36/38/21
f 39/41/22 40/42/22 38/43/22
f 41/44/23 42/45/23 40/42/23
f 43/46/24 44/47/24 42/45/24
f 45/48/25 46/49/25 44/47/25
f 47/50/26 48/51/26 46/49/26
f 49/52/27 50/53/27 48/51/27
f 51/54/28 52/55/28 50/53/28
f 53/56/29 54/57/29 52/55/29
f 55/58/30 56/59/30 54/57/30
f 57/60/31 58/61/31 56/62/31
f 59/63/32 60/64/33 58/61/33
f 61/65/34 62/66/34 60/64/34
f 63/67/35 31/33/35 64/68/35
f 65/69/36 3/3/36 62/66/36
f 66/70/37 67/71/37 68/72/37
f 69/73/38 70/74/38 67/75/38
f 70/76/39 71/77/39 72/78/39
f 70/74/40 68/79/40 67/75/40
f 69/80/41 71/81/41 73/82/41
f 30/32/42 72/83/42 28/30/42
f 28/30/43 72/83/43 26/27/43
f 26/27/44 72/83/44 24/28/44
f 24/28/45 72/83/45 22/84/45
f 22/23/46 72/78/46 20/21/46
f 72/83/47 30/32/47 68/79/47
f 30/32/48 32/34/48 68/79/48
f 34/36/49 68/79/49 32/34/49
f 36/38/50 68/79/50 34/36/50
f 38/40/51 68/79/51 36/38/51
f 40/42/52 68/72/52 38/43/52
f 66/85/53 62/66/53 71/81/53
f 46/49/54 66/70/55 68/72/56
f 71/77/57 15/16/58 72/78/59
f 46/49/60 68/72/60 44/47/60
f 44/47/61 68/72/61 42/45/61
f 42/45/62 68/72/62 40/42/62
f 17/18/63 72/78/63 15/16/63
f 18/19/64 72/78/64 17/18/64
f 20/21/65 72/78/65 18/19/65
f 15/16/58 71/77/57 13/14/66
f 13/14/67 71/77/67 11/11/67
f 11/11/68 71/77/68 9/12/68
f 9/9/69 71/81/69 7/7/69
f 7/7/70 71/81/70 5/5/70
f 5/5/71 71/81/71 2/2/71
f 2/2/72 71/81/72 3/3/72
f 3/3/73 71/81/73 62/66/73
f 46/49/54 48/51/74 66/70/55
f 50/53/75 66/70/75 48/51/75
f 52/55/76 66/70/76 50/53/76
f 54/57/77 66/70/77 52/55/77
f 56/59/78 66/70/78 54/57/78
f 58/61/79 66/85/79 56/62/79
f 60/64/80 66/85/80 58/61/80
f 62/66/81 66/85/81 60/64/81
f 74/86/37 75/87/37 76/88/37
f 16/17/82 77/89/82 78/90/82
f 79/91/39 80/92/39 81/93/39
f 82/94/83 74/95/83 80/96/83
f 81/97/84 74/95/84 76/98/84
f 75/99/85 82/100/85 79/101/85
f 83/102/37 63/103/37 84/104/37
f 76/98/86 47/105/86 81/97/86
f 64/106/39 85/107/39 86/108/39
f 85/109/87 84/110/87 86/111/87
f 64/68/84 84/112/84 63/67/84
f 87/113/85 85/114/85 88/115/85
f 89/116/37 90/117/37 78/118/37
f 75/87/88 47/50/88 76/88/88
f 91/119/39 92/120/39 93/121/39
f 94/122/83 89/123/83 92/124/83
f 93/125/84 89/123/84 78/126/84
f 90/127/85 94/128/85 91/129/85
f 47/50/89 45/48/89 81/130/89
f 43/46/90 81/130/90 45/48/90
f 41/44/91 81/130/91 43/46/91
f 39/41/92 81/130/92 41/44/92
f 37/39/93 81/131/93 39/132/93
f 31/33/94 63/67/94 33/35/94
f 33/35/95 63/67/95 35/37/95
f 35/37/96 63/67/96 37/39/96
f 81/133/97 37/134/97 63/135/97
f 29/31/98 64/68/98 31/33/98
f 27/29/99 64/68/99 29/31/99
f 78/126/86 77/136/86 93/125/86
f 16/17/100 78/90/100 19/20/100
f 19/20/101 78/90/101 21/22/101
f 21/22/102 78/90/102 23/24/102
f 25/26/103 64/68/103 27/29/103
f 23/24/104 78/90/104 25/137/104
f 64/138/105 25/137/105 78/90/105
f 64/139/106 78/140/106 88/141/106
f 63/142/106 87/143/106 81/144/106
f 81/144/106 87/143/106 79/145/106
f 78/140/106 90/146/106 88/141/106
f 47/50/107 75/87/107 49/52/107
f 49/52/108 75/87/108 51/54/108
f 51/54/109 75/87/109 53/56/109
f 75/99/110 79/101/110 53/147/110
f 53/56/111 79/148/111 55/58/111
f 55/149/112 79/150/112 57/151/112
f 93/121/113 77/89/113 91/119/113
f 79/152/114 87/153/114 57/154/114
f 57/155/115 87/156/115 59/157/115
f 59/157/116 87/156/116 61/158/116
f 65/159/117 87/156/117 88/160/117
f 65/159/118 61/158/118 87/156/118
f 65/159/119 88/160/119 1/161/119
f 14/15/120 91/119/120 77/89/120
f 12/13/121 91/119/121 14/15/121
f 10/10/122 91/119/122 12/13/122
f 91/129/110 10/162/110 90/127/110
f 10/162/123 8/8/123 90/127/123
f 6/6/124 90/127/124 8/8/124
f 90/163/125 6/164/125 88/165/125
f 6/166/126 4/167/126 88/160/126
f 1/161/127 88/160/127 4/167/127
f 1/1/1 4/4/1 2/2/1
f 4/4/2 6/6/2 5/5/2
f 6/6/3 8/8/3 7/7/3
f 8/8/4 10/162/4 9/9/4
f 10/10/5 12/13/5 11/11/5
f 12/13/6 14/15/6 13/14/6
f 14/15/7 77/89/7 15/16/7
f 15/16/8 77/89/8 16/17/8
f 16/17/9 19/20/9 18/19/9
f 19/20/10 21/22/10 20/21/10
f 21/22/11 23/24/11 22/23/11
f 23/24/12 25/137/12 24/25/12
f 25/26/13 27/29/13 26/27/13
f 27/29/14 29/31/14 28/30/15
f 29/31/16 31/33/16 30/32/16
f 31/33/17 33/35/17 32/34/17
f 33/35/18 35/37/18 34/36/19
f 35/37/20 37/39/20 36/38/20
f 37/39/21 39/132/21 38/40/21
f 39/41/22 41/44/22 40/42/22
f 41/44/23 43/46/23 42/45/23
f 43/46/24 45/48/24 44/47/24
f 45/48/25 47/50/25 46/49/25
f 47/50/26 49/52/26 48/51/26
f 49/52/27 51/54/27 50/53/27
f 51/54/28 53/56/28 52/55/28
f 53/56/29 55/58/29 54/57/29
f 55/58/30 57/168/30 56/59/30
f 57/60/31 59/63/31 58/61/31
f 59/63/32 61/65/32 60/64/33
f 61/65/34 65/69/34 62/66/34
f 65/69/36 1/1/36 3/3/36
f 66/70/37 69/169/37 67/71/37
f 69/73/38 73/170/38 70/74/38
f 70/76/39 73/171/39 71/77/39
f 70/74/40 72/83/40 68/79/40
f 69/80/41 66/85/41 71/81/41
f 74/86/37 95/172/37 75/87/37
f 79/91/39 82/173/39 80/92/39
f 82/94/83 95/174/83 74/95/83
f 81/97/84 80/96/84 74/95/84
f 75/99/85 95/175/85 82/100/85
f 83/102/37 87/176/37 63/103/37
f 64/106/39 88/177/39 85/107/39
f 85/109/87 83/178/87 84/110/87
f 64/68/84 86/179/84 84/112/84
f 87/113/85 83/180/85 85/114/85
f 89/116/37 96/181/37 90/117/37
f 91/119/39 94/182/39 92/120/39
f 94/122/83 96/183/83 89/123/83
f 93/125/84 92/124/84 89/123/84
f 90/127/85 96/184/85 94/128/85
