# Blender v2.80 (sub 75) OBJ File: 'lamp.blend'
# www.blender.org
mtllib lamp.mtl
o Cube_Cube.001
v -0.435194 -1.434274 0.434972
v -0.150137 0.701330 0.149915
v -0.435194 -1.434274 -0.435142
v -0.150137 0.701330 -0.150085
v 0.434920 -1.434274 0.434972
v 0.149863 0.701330 0.149915
v 0.434920 -1.434274 -0.435142
v 0.149863 0.701330 -0.150085
v 0.361666 0.977720 0.262778
v -0.138331 0.977720 0.425240
v -0.447351 0.977722 -0.000085
v -0.138331 0.977720 -0.425409
v 0.361666 0.977720 -0.262947
v 0.138057 1.424940 0.425240
v -0.361941 1.424939 0.262778
v -0.361941 1.424939 -0.262947
v 0.138057 1.424940 -0.425409
v 0.447076 1.424937 -0.000085
v -0.000137 1.701330 -0.000085
v -0.081365 0.776002 0.249913
v 0.212524 0.776003 0.154421
v 0.131297 0.938461 0.404421
v 0.425187 0.938462 -0.000085
v 0.212524 0.776003 -0.154590
v -0.263002 0.776004 -0.000085
v -0.344232 0.938461 0.249914
v -0.081365 0.776002 -0.250082
v -0.344232 0.938461 -0.250083
v 0.131297 0.938461 -0.404590
v 0.475392 1.201330 0.154422
v 0.475392 1.201330 -0.154591
v -0.000137 1.201330 0.499915
v 0.293755 1.201330 0.404424
v -0.475666 1.201330 0.154422
v -0.294030 1.201330 0.404424
v -0.294030 1.201330 -0.404593
v -0.475666 1.201330 -0.154591
v 0.293755 1.201330 -0.404593
v -0.000137 1.201330 -0.500085
v 0.343957 1.464198 0.249914
v -0.131572 1.464198 0.404421
v -0.425461 1.464198 -0.000085
v -0.131572 1.464198 -0.404590
v 0.343957 1.464198 -0.250083
v 0.081090 1.626657 0.249913
v 0.262727 1.626655 -0.000085
v -0.212799 1.626657 0.154421
v -0.212799 1.626657 -0.154590
v 0.081090 1.626657 -0.250082
vt 0.625000 0.000000
vt 0.375000 0.250000
vt 0.375000 0.000000
vt 0.625000 0.250000
vt 0.375000 0.500000
vt 0.625000 0.500000
vt 0.375000 0.750000
vt 0.625000 0.750000
vt 0.375000 1.000000
vt 0.125000 0.750000
vt 0.125000 0.500000
vt 0.727272 0.157461
vt 0.681818 0.078731
vt 0.636363 0.157461
vt 0.681818 0.236191
vt 0.909090 0.157461
vt 0.818181 0.157461
vt 0.863635 0.236191
vt 0.181818 0.157461
vt 0.090909 0.157461
vt 0.136363 0.236191
vt 0.363636 0.157461
vt 0.272727 0.157461
vt 0.318182 0.236191
vt 0.545454 0.157461
vt 0.454545 0.157461
vt 0.500000 0.236191
vt 0.772726 0.236191
vt 0.954545 0.236191
vt 0.227273 0.236191
vt 0.409090 0.236191
vt 0.590909 0.236191
vt 0.818181 0.314921
vt 0.727272 0.314921
vt 0.772726 0.393651
vt 1.000000 0.314921
vt 0.909091 0.314921
vt 0.954545 0.393651
vt 0.272727 0.314921
vt 0.181818 0.314921
vt 0.227273 0.393651
vt 0.454545 0.314921
vt 0.363636 0.314921
vt 0.409090 0.393651
vt 0.636363 0.314921
vt 0.545454 0.314921
vt 0.590909 0.393651
vt 0.500000 0.393651
vt 0.545454 0.472382
vt 0.318182 0.393651
vt 0.363636 0.472382
vt 0.136363 0.393651
vt 0.181818 0.472382
vt 0.090909 0.314921
vt 0.863635 0.393651
vt 0.909090 0.472382
vt 0.681818 0.393651
vt 0.727272 0.472382
vt 0.045454 0.236191
vt 0.000000 0.157461
vt 0.500000 0.078731
vt 0.409090 0.078731
vt 0.318182 0.078731
vt 0.227273 0.078731
vt 0.136363 0.078731
vt 0.045454 0.078731
vt 0.590909 0.078731
vt 0.863635 0.078731
vt 0.772726 0.078731
vt 0.000000 0.000000
vt 0.000000 0.000000
vt 0.000000 0.000000
vt 0.000000 0.000000
vt 0.625000 1.000000
vn -0.9912 0.1323 0.0000
vn 0.0000 0.1323 -0.9912
vn 0.9912 0.1323 0.0000
vn 0.0000 0.1323 0.9912
vn 0.0000 -1.0000 0.0000
vn 0.7002 -0.6617 0.2680
vn 0.9050 -0.3304 0.2680
vn 0.0247 -0.3304 0.9435
vn -0.8897 -0.3304 0.3151
vn -0.5746 -0.3304 -0.7488
vn 0.5346 -0.3304 -0.7779
vn 0.8026 -0.1256 0.5831
vn -0.3066 -0.1256 0.9435
vn -0.9921 -0.1256 0.0000
vn -0.3066 -0.1256 -0.9435
vn 0.8026 -0.1256 -0.5831
vn 0.4089 0.6617 0.6284
vn -0.4713 0.6617 0.5831
vn -0.7002 0.6617 -0.2680
vn 0.0385 0.6617 -0.7488
vn 0.7240 0.6617 -0.1947
vn 0.2680 0.9435 -0.1947
vn 0.4911 0.7947 -0.3568
vn 0.4089 0.6617 -0.6284
vn -0.1024 0.9435 -0.3151
vn -0.1876 0.7947 -0.5773
vn -0.4713 0.6617 -0.5831
vn -0.3313 0.9435 0.0000
vn -0.6071 0.7947 0.0000
vn -0.7002 0.6617 0.2680
vn -0.1024 0.9435 0.3151
vn -0.1876 0.7947 0.5773
vn 0.0385 0.6617 0.7488
vn 0.2680 0.9435 0.1947
vn 0.4911 0.7947 0.3568
vn 0.7240 0.6617 0.1947
vn 0.8897 0.3304 -0.3151
vn 0.7947 0.1876 -0.5773
vn 0.5746 0.3304 -0.7488
vn -0.0247 0.3304 -0.9435
vn -0.3035 0.1876 -0.9342
vn -0.5346 0.3304 -0.7779
vn -0.9050 0.3304 -0.2680
vn -0.9822 0.1876 0.0000
vn -0.9050 0.3304 0.2680
vn -0.5346 0.3304 0.7779
vn -0.3035 0.1876 0.9342
vn -0.0247 0.3304 0.9435
vn 0.5746 0.3304 0.7488
vn 0.7947 0.1876 0.5773
vn 0.8897 0.3304 0.3151
vn 0.3066 0.1256 -0.9435
vn 0.3035 -0.1876 -0.9342
vn 0.0247 -0.3304 -0.9435
vn -0.8026 0.1256 -0.5831
vn -0.7947 -0.1876 -0.5773
vn -0.8897 -0.3304 -0.3151
vn -0.8026 0.1256 0.5831
vn -0.7947 -0.1876 0.5773
vn -0.5746 -0.3304 0.7488
vn 0.3066 0.1256 0.9435
vn 0.3035 -0.1876 0.9342
vn 0.5346 -0.3304 0.7779
vn 0.9921 0.1256 0.0000
vn 0.9822 -0.1876 0.0000
vn 0.9050 -0.3304 -0.2680
vn 0.4713 -0.6617 -0.5831
vn 0.1876 -0.7947 -0.5773
vn -0.0385 -0.6617 -0.7488
vn -0.4089 -0.6617 -0.6284
vn -0.4911 -0.7947 -0.3568
vn -0.7240 -0.6617 -0.1947
vn -0.7240 -0.6617 0.1947
vn -0.4911 -0.7947 0.3568
vn -0.4089 -0.6617 0.6284
vn 0.7002 -0.6617 -0.2680
vn 0.6071 -0.7947 0.0000
vn -0.0385 -0.6617 0.7488
vn 0.1876 -0.7947 0.5773
vn 0.4713 -0.6617 0.5831
vn -0.8083 -0.0420 -0.5873
vn 0.0000 -0.8012 -0.5983
vn 0.2946 -0.3019 -0.9067
vn -0.5518 -0.8340 0.0000
vn -0.8083 -0.0420 0.5873
vn 0.7660 -0.6428 0.0000
vn 0.2946 -0.3019 0.9067
vn 0.0000 -0.8012 0.5983
usemtl None
s off
f 2/1/1 3/2/1 1/3/1
f 4/4/2 7/5/2 3/2/2
f 8/6/3 5/7/3 7/5/3
f 6/8/4 1/9/4 5/7/4
f 7/5/5 1/10/5 3/11/5
f 9/12/6 21/13/6 23/14/6
f 9/12/7 23/14/7 30/15/7
f 10/16/8 22/17/8 32/18/8
f 11/19/9 26/20/9 34/21/9
f 12/22/10 28/23/10 36/24/10
f 13/25/11 29/26/11 38/27/11
f 9/12/12 30/15/12 33/28/12
f 10/16/13 32/18/13 35/29/13
f 11/19/14 34/21/14 37/30/14
f 12/22/15 36/24/15 39/31/15
f 13/25/16 38/27/16 31/32/16
f 14/33/17 40/34/17 45/35/17
f 15/36/18 41/37/18 47/38/18
f 16/39/19 42/40/19 48/41/19
f 17/42/20 43/43/20 49/44/20
f 18/45/21 44/46/21 46/47/21
f 46/47/22 49/48/22 19/49/22
f 46/47/23 44/46/23 49/48/23
f 44/46/24 17/42/24 49/48/24
f 49/44/25 48/50/25 19/51/25
f 49/44/26 43/43/26 48/50/26
f 43/43/27 16/39/27 48/50/27
f 48/41/28 47/52/28 19/53/28
f 48/41/29 42/40/29 47/52/29
f 42/40/30 15/54/30 47/52/30
f 47/38/31 45/55/31 19/56/31
f 47/38/32 41/37/32 45/55/32
f 41/37/33 14/33/33 45/55/33
f 45/35/34 46/57/34 19/58/34
f 45/35/35 40/34/35 46/57/35
f 40/34/36 18/45/36 46/57/36
f 31/32/37 44/46/37 18/45/37
f 31/32/38 38/27/38 44/46/38
f 38/27/39 17/42/39 44/46/39
f 39/31/40 43/43/40 17/42/40
f 39/31/41 36/24/41 43/43/41
f 36/24/42 16/39/42 43/43/42
f 37/30/43 42/40/43 16/39/43
f 37/30/44 34/21/44 42/40/44
f 34/21/45 15/54/45 42/40/45
f 35/29/46 41/37/46 15/36/46
f 35/29/47 32/18/47 41/37/47
f 32/18/48 14/33/48 41/37/48
f 33/28/49 40/34/49 14/33/49
f 33/28/50 30/15/50 40/34/50
f 30/15/51 18/45/51 40/34/51
f 38/27/52 39/31/52 17/42/52
f 38/27/53 29/26/53 39/31/53
f 29/26/54 12/22/54 39/31/54
f 36/24/55 37/30/55 16/39/55
f 36/24/56 28/23/56 37/30/56
f 28/23/57 11/19/57 37/30/57
f 34/21/58 35/59/58 15/54/58
f 34/21/59 26/20/59 35/59/59
f 26/20/60 10/60/60 35/59/60
f 32/18/61 33/28/61 14/33/61
f 32/18/62 22/17/62 33/28/62
f 22/17/63 9/12/63 33/28/63
f 30/15/64 31/32/64 18/45/64
f 30/15/65 23/14/65 31/32/65
f 23/14/66 13/25/66 31/32/66
f 24/61/67 29/26/67 13/25/67
f 24/61/68 27/62/68 29/26/68
f 27/62/69 12/22/69 29/26/69
f 27/63/70 28/23/70 12/22/70
f 27/63/71 25/64/71 28/23/71
f 25/64/72 11/19/72 28/23/72
f 25/65/73 26/20/73 11/19/73
f 25/65/74 20/66/74 26/20/74
f 20/66/75 10/60/75 26/20/75
f 23/14/76 24/67/76 13/25/76
f 23/14/77 21/13/77 24/67/77
f 20/68/78 22/17/78 10/16/78
f 20/68/79 21/69/79 22/17/79
f 21/69/80 9/12/80 22/17/80
f 4/70/81 25/64/81 27/63/81
f 27/63/82 8/6/82 4/4/82
f 27/63/83 24/61/83 8/6/83
f 25/64/84 4/4/84 2/1/84
f 25/64/85 2/1/85 20/66/85
f 8/6/86 24/61/86 6/8/86
f 24/61/86 21/13/86 6/8/86
f 21/13/87 20/68/87 6/8/87
f 6/71/88 20/72/88 2/73/88
f 7/5/5 5/7/5 1/10/5
f 2/1/1 4/4/1 3/2/1
f 4/4/2 8/6/2 7/5/2
f 8/6/3 6/8/3 5/7/3
f 6/8/4 2/74/4 1/9/4
